<svg width="696" height="507" viewBox="0 0 696 507" fill="none" xmlns="http://www.w3.org/2000/svg">
<rect width="696" height="507" fill="#EE3523"/>
<path d="M125.971 207.776L145.304 205.087L172.728 293.856L158.455 295.841L153.352 278.166L153.388 278.426L137.169 280.681L137.046 298.818L123.812 300.659L125.971 207.776ZM149.987 266.334L137.385 222.324L137.126 222.36L137.141 268.12L149.987 266.334Z" fill="black"/>
<path d="M173.95 201.722L188.176 200.266L197.444 290.792L183.218 292.249L173.95 201.722Z" fill="black"/>
<path d="M214.521 270.853L215.006 276.11L181.549 279.2L181.063 273.942L214.521 270.853Z" fill="black"/>
<path d="M254.324 286.264C247.512 286.713 242.192 285.139 238.363 281.544C234.528 277.863 232.372 272.403 231.895 265.166L227.397 196.962L241.447 196.035L246.012 265.261C246.214 268.326 246.956 270.501 248.238 271.785C249.605 273.063 251.438 273.626 253.737 273.474C256.036 273.323 257.737 272.527 258.839 271.086C260.027 269.639 260.519 267.383 260.317 264.318L255.752 195.092L269.29 194.199L273.788 262.403C274.265 269.641 272.845 275.336 269.527 279.488C266.204 283.556 261.136 285.814 254.324 286.264Z" fill="black"/>
<path d="M287.029 194.047L308.211 193.476C315.575 193.277 320.993 194.865 324.465 198.239C327.935 201.527 329.766 206.723 329.958 213.827L330.108 219.415C330.363 228.858 327.405 234.92 321.235 237.601L321.242 237.861C324.736 238.807 327.219 240.864 328.691 244.032C330.25 247.198 331.102 251.467 331.247 256.838L331.678 272.822C331.748 275.421 331.892 277.541 332.11 279.183C332.325 280.738 332.8 282.285 333.535 283.826L318.981 284.218C318.421 282.76 318.037 281.383 317.829 280.088C317.621 278.793 317.471 276.456 317.38 273.078L316.931 256.444C316.819 252.285 316.048 249.402 314.617 247.793C313.274 246.182 310.955 245.421 307.663 245.509L302.725 245.643L303.776 284.628L289.481 285.014L287.029 194.047ZM307.573 232.507C310.432 232.43 312.535 231.636 313.881 230.126C315.314 228.614 315.984 226.125 315.89 222.659L315.701 215.642C315.613 212.35 314.942 209.984 313.689 208.544C312.523 207.101 310.684 206.414 308.172 206.482L301.674 206.657L302.375 232.647L307.573 232.507Z" fill="black"/>
<path d="M360.052 192.565L379.555 192.798L393.382 284.6L378.984 284.428L376.584 266.203L376.581 266.464L360.219 266.269L357.387 284.17L344.036 284.01L360.052 192.565ZM375.028 254.01L369.155 208.645L368.893 208.642L362.069 253.855L375.028 254.01Z" fill="black"/>
<path d="M406.576 194.326L420.859 195.014L416.483 285.909L402.199 285.221L406.576 194.326Z" fill="black"/>
<path d="M438.725 209.919L438.502 215.194L404.932 213.775L405.155 208.5L438.725 209.919Z" fill="black"/>
<path d="M431.925 246.919L431.702 252.195L398.132 250.775L398.355 245.5L431.925 246.919Z" fill="black"/>
<path d="M456.983 196.648L471.236 197.813L463.823 288.51L449.571 287.345L456.983 196.648Z" fill="black"/>
<path d="M485.121 271.803L484.693 277.066L451.204 274.341L451.632 269.078L485.121 271.803Z" fill="black"/>
<path d="M509.482 201.396L523.796 202.955L513.873 294.047L499.559 292.487L509.482 201.396Z" fill="black"/>
<path d="M548.738 251.414L539.21 204.856L554.261 206.949L559.784 237.608L560.044 237.645L573.983 209.692L587.477 211.569L565.606 253.76L575.624 302.503L560.573 300.41L554.596 267.307L554.336 267.271L539.294 297.45L525.8 295.574L548.738 251.414Z" fill="black"/>
<path d="M120.473 209.613L139.363 206.986L166.159 293.722L152.213 295.661L147.226 278.392L147.262 278.645L131.414 280.849L131.294 298.571L118.363 300.369L120.473 209.613ZM143.938 266.83L131.626 223.829L131.372 223.864L131.387 268.576L143.938 266.83Z" fill="white"/>
<path d="M120.473 209.613L120.335 208.623L119.493 208.74L119.473 209.59L120.473 209.613ZM139.363 206.986L140.319 206.691L140.068 205.878L139.226 205.996L139.363 206.986ZM166.159 293.722L166.296 294.712L167.461 294.55L167.114 293.427L166.159 293.722ZM152.213 295.661L151.252 295.939L151.492 296.771L152.351 296.652L152.213 295.661ZM147.226 278.392L148.187 278.114L146.236 278.529L147.226 278.392ZM147.262 278.645L147.399 279.636L148.39 279.498L148.252 278.507L147.262 278.645ZM131.414 280.849L131.276 279.859L130.42 279.978L130.414 280.842L131.414 280.849ZM131.294 298.571L131.432 299.561L132.288 299.442L132.294 298.577L131.294 298.571ZM118.363 300.369L117.363 300.346L117.336 301.522L118.5 301.36L118.363 300.369ZM143.938 266.83L144.076 267.821L145.217 267.662L144.9 266.555L143.938 266.83ZM131.626 223.829L132.587 223.553L132.348 222.718L131.488 222.838L131.626 223.829ZM131.372 223.864L131.234 222.873L130.372 222.993L130.372 223.864L131.372 223.864ZM131.387 268.576L130.387 268.576L130.388 269.725L131.525 269.566L131.387 268.576ZM120.611 210.604L139.501 207.977L139.226 205.996L120.335 208.623L120.611 210.604ZM138.408 207.281L165.203 294.017L167.114 293.427L140.319 206.691L138.408 207.281ZM166.021 292.731L152.075 294.671L152.351 296.652L166.296 294.712L166.021 292.731ZM153.174 295.384L148.187 278.114L146.266 278.669L151.252 295.939L153.174 295.384ZM146.236 278.529L146.271 278.783L148.252 278.507L148.217 278.254L146.236 278.529ZM147.124 277.655L131.276 279.859L131.552 281.84L147.399 279.636L147.124 277.655ZM130.414 280.842L130.294 298.564L132.294 298.577L132.414 280.856L130.414 280.842ZM131.156 297.58L118.225 299.379L118.5 301.36L131.432 299.561L131.156 297.58ZM119.362 300.392L121.473 209.636L119.473 209.59L117.363 300.346L119.362 300.392ZM144.9 266.555L132.587 223.553L130.664 224.104L142.977 267.106L144.9 266.555ZM131.488 222.838L131.234 222.873L131.51 224.854L131.763 224.819L131.488 222.838ZM130.372 223.864L130.387 268.576L132.387 268.576L132.372 223.863L130.372 223.864ZM131.525 269.566L144.076 267.821L143.801 265.84L131.25 267.585L131.525 269.566Z" fill="black"/>
<path d="M169.16 203.253L183.167 201.819L190.989 278.219L214.036 275.86L215.34 288.593L178.285 292.387L169.16 203.253Z" fill="white"/>
<path d="M169.16 203.253L169.058 202.258L168.063 202.36L168.165 203.354L169.16 203.253ZM183.167 201.819L184.162 201.717L184.06 200.722L183.065 200.824L183.167 201.819ZM190.989 278.219L189.994 278.321L190.096 279.316L191.09 279.214L190.989 278.219ZM214.036 275.86L215.031 275.758L214.929 274.763L213.934 274.865L214.036 275.86ZM215.34 288.593L215.442 289.588L216.436 289.486L216.334 288.491L215.34 288.593ZM178.285 292.387L177.291 292.488L177.392 293.483L178.387 293.381L178.285 292.387ZM169.262 204.247L183.269 202.813L183.065 200.824L169.058 202.258L169.262 204.247ZM182.172 201.92L189.994 278.321L191.983 278.117L184.162 201.717L182.172 201.92ZM191.09 279.214L214.138 276.854L213.934 274.865L190.887 277.224L191.09 279.214ZM213.041 275.962L214.345 288.695L216.334 288.491L215.031 275.758L213.041 275.962ZM215.238 287.598L178.184 291.392L178.387 293.381L215.442 289.588L215.238 287.598ZM179.28 292.285L170.155 203.151L168.165 203.354L177.291 292.488L179.28 292.285Z" fill="black"/>
<path d="M247.314 287.554C240.502 288.003 235.182 286.43 231.353 282.834C227.518 279.153 225.362 273.694 224.885 266.456L220.387 198.253L234.437 197.326L239.002 266.552C239.204 269.617 239.946 271.792 241.228 273.075C242.595 274.353 244.428 274.917 246.727 274.765C249.026 274.613 250.727 273.817 251.829 272.376C253.016 270.93 253.509 268.674 253.307 265.608L248.742 196.383L262.28 195.49L266.778 263.694C267.255 270.931 265.835 276.626 262.517 280.779C259.194 284.847 254.126 287.105 247.314 287.554Z" fill="white"/>
<path d="M231.353 282.834L230.66 283.556L230.668 283.563L231.353 282.834ZM220.387 198.253L220.321 197.255L219.324 197.321L219.389 198.318L220.387 198.253ZM234.437 197.326L235.434 197.26L235.369 196.262L234.371 196.328L234.437 197.326ZM241.228 273.075L240.521 273.782L240.533 273.794L240.545 273.806L241.228 273.075ZM251.829 272.376L251.056 271.742L251.045 271.755L251.035 271.769L251.829 272.376ZM248.742 196.383L248.676 195.385L247.678 195.451L247.744 196.448L248.742 196.383ZM262.28 195.49L263.278 195.424L263.212 194.426L262.214 194.492L262.28 195.49ZM262.517 280.779L263.292 281.412L263.298 281.403L262.517 280.779ZM247.248 286.556C240.626 286.993 235.608 285.459 232.037 282.105L230.668 283.563C234.755 287.401 240.379 289.014 247.38 288.552L247.248 286.556ZM232.045 282.113C228.448 278.659 226.35 273.471 225.883 266.391L223.887 266.522C224.375 273.917 226.589 279.647 230.66 283.556L232.045 282.113ZM225.883 266.391L221.385 198.187L219.389 198.318L223.887 266.522L225.883 266.391ZM220.453 199.25L234.502 198.324L234.371 196.328L220.321 197.255L220.453 199.25ZM233.439 197.392L238.004 266.617L240 266.486L235.434 197.26L233.439 197.392ZM238.004 266.617C238.212 269.77 238.983 272.242 240.521 273.782L241.936 272.369C240.909 271.341 240.196 269.464 240 266.486L238.004 266.617ZM240.545 273.806C242.159 275.315 244.287 275.928 246.793 275.763L246.661 273.767C244.57 273.905 243.031 273.392 241.911 272.345L240.545 273.806ZM246.793 275.763C249.296 275.598 251.301 274.713 252.623 272.984L251.035 271.769C250.153 272.922 248.756 273.629 246.661 273.767L246.793 275.763ZM252.602 273.011C254.027 271.275 254.514 268.708 254.305 265.542L252.309 265.674C252.505 268.639 252.006 270.585 251.056 271.742L252.602 273.011ZM254.305 265.542L249.739 196.317L247.744 196.448L252.309 265.674L254.305 265.542ZM248.807 197.38L262.346 196.488L262.214 194.492L248.676 195.385L248.807 197.38ZM261.282 195.556L265.78 263.759L267.776 263.628L263.278 195.424L261.282 195.556ZM265.78 263.759C266.247 270.84 264.849 276.259 261.736 280.155L263.298 281.403C266.821 276.994 268.264 271.023 267.776 263.628L265.78 263.759ZM261.743 280.146C258.643 283.94 253.871 286.12 247.248 286.556L247.38 288.552C254.381 288.09 259.744 285.753 263.292 281.412L261.743 280.146Z" fill="black"/>
<path d="M280.997 194.62L301.854 194.058C309.104 193.862 314.439 195.426 317.858 198.748C321.274 201.985 323.077 207.101 323.265 214.096L323.414 219.598C323.665 228.896 320.752 234.864 314.677 237.504L314.684 237.76C318.124 238.691 320.569 240.717 322.019 243.836C323.554 246.953 324.393 251.156 324.535 256.445L324.96 272.183C325.029 274.742 325.17 276.83 325.385 278.446C325.597 279.977 326.065 281.501 326.788 283.018L312.458 283.404C311.907 281.968 311.529 280.612 311.324 279.337C311.118 278.062 310.971 275.762 310.881 272.435L310.44 256.057C310.329 251.962 309.57 249.123 308.161 247.539C306.838 245.953 304.556 245.203 301.314 245.291L296.452 245.422L297.487 283.808L283.412 284.187L280.997 194.62ZM301.225 232.489C304.04 232.413 306.111 231.631 307.436 230.144C308.847 228.655 309.507 226.204 309.415 222.792L309.229 215.883C309.141 212.641 308.481 210.312 307.247 208.894C306.099 207.473 304.289 206.797 301.815 206.863L295.417 207.036L296.107 232.627L301.225 232.489Z" fill="white"/>
<path d="M280.997 194.62L280.97 193.62L279.971 193.647L279.998 194.647L280.997 194.62ZM317.858 198.748L317.161 199.465L317.17 199.474L317.858 198.748ZM314.677 237.504L314.279 236.587L313.659 236.856L313.678 237.531L314.677 237.504ZM314.684 237.76L313.685 237.787L313.705 238.53L314.423 238.725L314.684 237.76ZM322.019 243.836L321.112 244.258L321.117 244.268L321.122 244.278L322.019 243.836ZM325.385 278.446L324.393 278.578L324.394 278.583L325.385 278.446ZM326.788 283.018L326.815 284.018L328.354 283.976L327.691 282.587L326.788 283.018ZM312.458 283.404L311.524 283.762L311.777 284.423L312.485 284.404L312.458 283.404ZM308.161 247.539L307.393 248.18L307.404 248.192L307.414 248.204L308.161 247.539ZM296.452 245.422L296.425 244.422L295.425 244.449L295.452 245.449L296.452 245.422ZM297.487 283.808L297.514 284.808L298.514 284.781L298.487 283.781L297.487 283.808ZM283.412 284.187L282.413 284.214L282.439 285.214L283.439 285.187L283.412 284.187ZM307.436 230.144L306.71 229.456L306.7 229.467L306.69 229.479L307.436 230.144ZM307.247 208.894L306.47 209.522L306.481 209.536L306.493 209.55L307.247 208.894ZM295.417 207.036L295.39 206.036L294.39 206.063L294.417 207.063L295.417 207.036ZM296.107 232.627L295.107 232.653L295.134 233.653L296.134 233.626L296.107 232.627ZM281.024 195.62L301.881 195.057L301.827 193.058L280.97 193.62L281.024 195.62ZM301.881 195.057C309 194.865 314.016 196.409 317.161 199.465L318.555 198.031C314.862 194.442 309.208 192.859 301.827 193.058L301.881 195.057ZM317.17 199.474C320.318 202.456 322.081 207.265 322.266 214.123L324.265 214.069C324.073 206.937 322.231 201.514 318.546 198.022L317.17 199.474ZM322.266 214.123L322.414 219.625L324.413 219.571L324.265 214.069L322.266 214.123ZM322.414 219.625C322.537 224.174 321.882 227.816 320.519 230.609C319.167 233.38 317.097 235.362 314.279 236.587L315.076 238.421C318.332 237.006 320.756 234.684 322.316 231.486C323.866 228.311 324.542 224.32 324.413 219.571L322.414 219.625ZM313.678 237.531L313.685 237.787L315.684 237.733L315.677 237.477L313.678 237.531ZM314.423 238.725C317.589 239.583 319.791 241.417 321.112 244.258L322.925 243.415C321.346 240.017 318.658 237.8 314.946 236.794L314.423 238.725ZM321.122 244.278C322.569 247.216 323.395 251.259 323.536 256.472L325.535 256.418C325.39 251.053 324.539 246.69 322.916 243.394L321.122 244.278ZM323.536 256.472L323.96 272.21L325.959 272.156L325.535 256.418L323.536 256.472ZM323.96 272.21C324.03 274.787 324.173 276.913 324.393 278.578L326.376 278.315C326.168 276.747 326.028 274.698 325.959 272.156L323.96 272.21ZM324.394 278.583C324.621 280.224 325.122 281.847 325.886 283.449L327.691 282.587C327.007 281.155 326.572 279.729 326.375 278.309L324.394 278.583ZM326.761 282.018L312.431 282.405L312.485 284.404L326.815 284.018L326.761 282.018ZM313.391 283.046C312.861 281.662 312.503 280.374 312.311 279.179L310.336 279.496C310.554 280.851 310.953 282.273 311.524 283.762L313.391 283.046ZM312.311 279.179C312.118 277.977 311.971 275.738 311.881 272.408L309.882 272.462C309.971 275.785 310.119 278.148 310.336 279.496L312.311 279.179ZM311.881 272.408L311.439 256.03L309.44 256.084L309.882 272.462L311.881 272.408ZM311.439 256.03C311.328 251.889 310.565 248.738 308.909 246.875L307.414 248.204C308.575 249.508 309.331 252.035 309.44 256.084L311.439 256.03ZM308.929 246.898C307.32 244.969 304.659 244.2 301.287 244.291L301.341 246.29C304.453 246.207 306.356 246.937 307.393 248.18L308.929 246.898ZM301.287 244.291L296.425 244.422L296.479 246.422L301.341 246.29L301.287 244.291ZM295.452 245.449L296.487 283.835L298.487 283.781L297.452 245.395L295.452 245.449ZM297.46 282.808L283.385 283.188L283.439 285.187L297.514 284.808L297.46 282.808ZM284.412 284.16L281.997 194.593L279.998 194.647L282.413 284.214L284.412 284.16ZM301.252 233.488C304.226 233.408 306.608 232.576 308.183 230.81L306.69 229.479C305.613 230.687 303.854 231.417 301.198 231.489L301.252 233.488ZM308.162 230.832C309.845 229.056 310.509 226.276 310.414 222.765L308.415 222.819C308.505 226.133 307.85 228.254 306.71 229.456L308.162 230.832ZM310.414 222.765L310.228 215.856L308.229 215.91L308.415 222.819L310.414 222.765ZM310.228 215.856C310.139 212.535 309.464 209.918 308.002 208.237L306.493 209.55C307.497 210.705 308.144 212.748 308.229 215.91L310.228 215.856ZM308.025 208.265C306.617 206.523 304.454 205.792 301.788 205.864L301.842 207.863C304.123 207.801 305.582 208.424 306.47 209.522L308.025 208.265ZM301.788 205.864L295.39 206.036L295.444 208.035L301.842 207.863L301.788 205.864ZM294.417 207.063L295.107 232.653L297.107 232.6L296.417 207.009L294.417 207.063ZM296.134 233.626L301.252 233.488L301.198 231.489L296.08 231.627L296.134 233.626Z" fill="black"/>
<path d="M352.07 193.491L371.141 193.719L384.662 283.486L370.583 283.318L368.235 265.497L368.232 265.753L352.233 265.562L349.464 283.066L336.409 282.91L352.07 193.491ZM366.714 253.574L360.971 209.214L360.715 209.211L354.043 253.423L366.714 253.574Z" fill="white"/>
<path d="M352.07 193.491L352.082 192.491L351.232 192.481L351.085 193.318L352.07 193.491ZM371.141 193.719L372.13 193.57L372.003 192.729L371.153 192.719L371.141 193.719ZM384.662 283.486L384.65 284.486L385.826 284.5L385.651 283.338L384.662 283.486ZM370.583 283.318L369.591 283.449L369.704 284.308L370.571 284.318L370.583 283.318ZM368.235 265.497L369.227 265.366L367.235 265.485L368.235 265.497ZM368.232 265.753L368.22 266.753L369.22 266.765L369.232 265.765L368.232 265.753ZM352.233 265.562L352.245 264.562L351.381 264.552L351.246 265.406L352.233 265.562ZM349.464 283.066L349.452 284.066L350.317 284.076L350.452 283.222L349.464 283.066ZM336.409 282.91L335.424 282.738L335.221 283.896L336.397 283.91L336.409 282.91ZM366.714 253.574L366.702 254.574L367.853 254.588L367.705 253.446L366.714 253.574ZM360.971 209.214L361.963 209.086L361.851 208.225L360.983 208.214L360.971 209.214ZM360.715 209.211L360.727 208.211L359.856 208.201L359.726 209.062L360.715 209.211ZM354.043 253.423L353.054 253.273L352.882 254.409L354.031 254.423L354.043 253.423ZM352.058 194.491L371.129 194.719L371.153 192.719L352.082 192.491L352.058 194.491ZM370.152 193.868L383.673 283.635L385.651 283.338L372.13 193.57L370.152 193.868ZM384.674 282.487L370.595 282.318L370.571 284.318L384.65 284.486L384.674 282.487ZM371.574 283.188L369.227 265.366L367.244 265.628L369.591 283.449L371.574 283.188ZM367.235 265.485L367.232 265.741L369.232 265.765L369.235 265.509L367.235 265.485ZM368.244 264.753L352.245 264.562L352.221 266.562L368.22 266.753L368.244 264.753ZM351.246 265.406L348.476 282.91L350.452 283.222L353.221 265.718L351.246 265.406ZM349.476 282.066L336.421 281.91L336.397 283.91L349.452 284.066L349.476 282.066ZM337.394 283.083L353.055 193.663L351.085 193.318L335.424 282.738L337.394 283.083ZM367.705 253.446L361.963 209.086L359.979 209.343L365.722 253.702L367.705 253.446ZM360.983 208.214L360.727 208.211L360.703 210.211L360.959 210.214L360.983 208.214ZM359.726 209.062L353.054 253.273L355.031 253.572L361.704 209.36L359.726 209.062ZM354.031 254.423L366.702 254.574L366.726 252.574L354.054 252.423L354.031 254.423Z" fill="black"/>
<path d="M401.161 194.484L438.366 196.275L437.75 209.06L414.609 207.946L413.408 232.877L431.563 233.751L430.948 246.537L412.793 245.662L410.915 284.657L396.852 283.98L401.161 194.484Z" fill="white"/>
<path d="M401.161 194.484L401.209 193.485L400.21 193.437L400.162 194.436L401.161 194.484ZM438.366 196.275L439.364 196.323L439.413 195.324L438.414 195.276L438.366 196.275ZM437.75 209.06L437.702 210.059L438.701 210.107L438.749 209.108L437.75 209.06ZM414.609 207.946L414.657 206.947L413.658 206.899L413.61 207.898L414.609 207.946ZM413.408 232.877L412.41 232.829L412.362 233.828L413.36 233.876L413.408 232.877ZM431.563 233.751L432.562 233.799L432.61 232.801L431.612 232.752L431.563 233.751ZM430.948 246.537L430.9 247.535L431.899 247.583L431.947 246.585L430.948 246.537ZM412.793 245.662L412.841 244.664L411.842 244.615L411.794 245.614L412.793 245.662ZM410.915 284.657L410.867 285.656L411.866 285.704L411.914 284.705L410.915 284.657ZM396.852 283.98L395.853 283.932L395.805 284.931L396.804 284.979L396.852 283.98ZM401.113 195.483L438.318 197.274L438.414 195.276L401.209 193.485L401.113 195.483ZM437.367 196.227L436.751 209.012L438.749 209.108L439.364 196.323L437.367 196.227ZM437.798 208.061L414.657 206.947L414.561 208.945L437.702 210.059L437.798 208.061ZM413.61 207.898L412.41 232.829L414.407 232.925L415.608 207.994L413.61 207.898ZM413.36 233.876L431.515 234.75L431.612 232.752L413.457 231.878L413.36 233.876ZM430.565 233.703L429.949 246.488L431.947 246.585L432.562 233.799L430.565 233.703ZM430.996 245.538L412.841 244.664L412.745 246.661L430.9 247.535L430.996 245.538ZM411.794 245.614L409.917 284.609L411.914 284.705L413.792 245.71L411.794 245.614ZM410.963 283.658L396.9 282.981L396.804 284.979L410.867 285.656L410.963 283.658ZM397.851 284.028L402.16 194.532L400.162 194.436L395.853 283.932L397.851 284.028Z" fill="black"/>
<path d="M452.841 197.278L466.874 198.424L460.618 274.969L483.709 276.856L482.667 289.614L445.543 286.58L452.841 197.278Z" fill="white"/>
<path d="M452.841 197.278L452.923 196.281L451.926 196.199L451.845 197.196L452.841 197.278ZM466.874 198.424L467.871 198.506L467.953 197.509L466.956 197.428L466.874 198.424ZM460.618 274.969L459.622 274.888L459.54 275.884L460.537 275.966L460.618 274.969ZM483.709 276.856L484.706 276.938L484.788 275.941L483.791 275.86L483.709 276.856ZM482.667 289.614L482.585 290.611L483.582 290.692L483.663 289.695L482.667 289.614ZM445.543 286.58L444.546 286.498L444.464 287.495L445.461 287.576L445.543 286.58ZM452.76 198.274L466.793 199.421L466.956 197.428L452.923 196.281L452.76 198.274ZM465.878 198.343L459.622 274.888L461.615 275.051L467.871 198.506L465.878 198.343ZM460.537 275.966L483.628 277.853L483.791 275.86L460.7 273.973L460.537 275.966ZM482.713 276.775L481.67 289.532L483.663 289.695L484.706 276.938L482.713 276.775ZM482.748 288.617L445.624 285.583L445.461 287.576L482.585 290.611L482.748 288.617ZM446.539 286.661L453.838 197.359L451.845 197.196L444.546 286.498L446.539 286.661Z" fill="black"/>
<path d="M503.86 201.815L517.857 203.34L508.154 292.413L494.157 290.888L503.86 201.815Z" fill="white"/>
<path d="M503.86 201.815L503.968 200.821L502.974 200.713L502.866 201.707L503.86 201.815ZM517.857 203.34L518.851 203.448L518.959 202.454L517.965 202.346L517.857 203.34ZM508.154 292.413L508.046 293.407L509.04 293.516L509.148 292.521L508.154 292.413ZM494.157 290.888L493.163 290.78L493.054 291.774L494.049 291.883L494.157 290.888ZM503.752 202.809L517.749 204.334L517.965 202.346L503.968 200.821L503.752 202.809ZM516.863 203.232L507.16 292.305L509.148 292.521L518.851 203.448L516.863 203.232ZM508.262 291.419L494.265 289.894L494.049 291.883L508.046 293.407L508.262 291.419ZM495.151 290.997L504.854 201.924L502.866 201.707L493.163 290.78L495.151 290.997Z" fill="black"/>
<path d="M542.378 250.464L533.068 204.972L547.774 207.017L553.171 236.974L553.425 237.009L567.045 209.697L580.23 211.531L558.859 252.756L568.648 300.382L553.941 298.337L548.101 265.992L547.848 265.957L533.15 295.445L519.965 293.612L542.378 250.464Z" fill="white"/>
<path d="M542.378 250.464L543.265 250.925L543.429 250.61L543.358 250.263L542.378 250.464ZM533.068 204.972L533.205 203.981L531.804 203.786L532.088 205.172L533.068 204.972ZM547.774 207.017L548.758 206.84L548.63 206.126L547.912 206.027L547.774 207.017ZM553.171 236.974L552.187 237.151L552.315 237.865L553.033 237.964L553.171 236.974ZM553.425 237.009L553.287 238L553.999 238.099L554.319 237.456L553.425 237.009ZM567.045 209.697L567.182 208.707L566.47 208.608L566.15 209.251L567.045 209.697ZM580.23 211.531L581.118 211.991L581.769 210.735L580.367 210.54L580.23 211.531ZM558.859 252.756L557.971 252.296L557.808 252.61L557.88 252.957L558.859 252.756ZM568.648 300.382L568.51 301.373L569.913 301.568L569.627 300.181L568.648 300.382ZM553.941 298.337L552.957 298.515L553.086 299.228L553.804 299.328L553.941 298.337ZM548.101 265.992L549.085 265.815L548.957 265.102L548.239 265.002L548.101 265.992ZM547.848 265.957L547.986 264.967L547.273 264.868L546.953 265.511L547.848 265.957ZM533.15 295.445L533.012 296.436L533.724 296.535L534.045 295.892L533.15 295.445ZM519.965 293.612L519.077 293.151L518.424 294.407L519.827 294.602L519.965 293.612ZM543.358 250.263L534.047 204.771L532.088 205.172L541.398 250.664L543.358 250.263ZM532.93 205.962L547.636 208.007L547.912 206.027L533.205 203.981L532.93 205.962ZM546.79 207.194L552.187 237.151L554.155 236.797L548.758 206.84L546.79 207.194ZM553.033 237.964L553.287 238L553.562 236.019L553.309 235.984L553.033 237.964ZM554.319 237.456L567.94 210.143L566.15 209.251L552.53 236.563L554.319 237.456ZM566.907 210.688L580.092 212.521L580.367 210.54L567.182 208.707L566.907 210.688ZM579.342 211.071L557.971 252.296L559.747 253.216L581.118 211.991L579.342 211.071ZM557.88 252.957L567.668 300.584L569.627 300.181L559.839 252.555L557.88 252.957ZM568.786 299.392L554.079 297.347L553.804 299.328L568.51 301.373L568.786 299.392ZM554.926 298.159L549.085 265.815L547.117 266.17L552.957 298.515L554.926 298.159ZM548.239 265.002L547.986 264.967L547.71 266.947L547.964 266.983L548.239 265.002ZM546.953 265.511L532.255 294.999L534.045 295.892L548.743 266.403L546.953 265.511ZM533.287 294.455L520.102 292.621L519.827 294.602L533.012 296.436L533.287 294.455ZM520.852 294.073L543.265 250.925L541.49 250.003L519.077 293.151L520.852 294.073Z" fill="black"/>
</svg>
