<svg width="22" height="22" viewBox="0 0 24 24" fill="none" xmlns="http://www.w3.org/2000/svg">
<path d="M0 7.5C0 5.51088 1.26428 3.60322 3.51472 2.1967C5.76516 0.790176 8.8174 0 12 0C15.1826 0 18.2348 0.790176 20.4853 2.1967C22.7357 3.60322 24 5.51088 24 7.5V16.5C24 18.4891 22.7357 20.3968 20.4853 21.8033C18.2348 23.2098 15.1826 24 12 24C8.8174 24 5.76516 23.2098 3.51472 21.8033C1.26428 20.3968 0 18.4891 0 16.5V7.5ZM13.2 5.25C13.2 5.05109 13.0736 4.86032 12.8485 4.71967C12.6235 4.57902 12.3183 4.5 12 4.5C11.6817 4.5 11.3765 4.57902 11.1515 4.71967C10.9264 4.86032 10.8 5.05109 10.8 5.25V8.25C10.8 8.44891 10.9264 8.63968 11.1515 8.78033C11.3765 8.92098 11.6817 9 12 9C12.3183 9 12.6235 8.92098 12.8485 8.78033C13.0736 8.63968 13.2 8.44891 13.2 8.25V5.25Z" fill="#67DD0A"/>
</svg>
