<svg width="18" height="18" viewBox="0 0 18 18" fill="none" xmlns="http://www.w3.org/2000/svg">
<path d="M3 12H5.4C5.71667 12 5.98767 11.8873 6.213 11.662C6.43834 11.4367 6.55067 11.166 6.55 10.85V7.15C6.55 6.83333 6.43734 6.56234 6.212 6.337C5.98667 6.11167 5.716 5.99934 5.4 6H3V12ZM4.15 10.85V7.15H5.4V10.85H4.15ZM7.875 12L10.325 11.975V10.85H8.275V9.55H9.575V8.4H8.275V7.15H10.325V6H7.875C7.65834 6 7.47934 6.07067 7.338 6.212C7.19667 6.35334 7.12567 6.53267 7.125 6.75V11.25C7.125 11.4667 7.196 11.6457 7.338 11.787C7.48 11.9283 7.659 11.9993 7.875 12ZM13.025 11.975C13.2417 11.975 13.4293 11.904 13.588 11.762C13.7467 11.62 13.8507 11.441 13.9 11.225L15.3 6H14.1L13.025 10.1L11.95 6H10.75L12.15 11.225C12.2 11.4417 12.3043 11.621 12.463 11.763C12.6217 11.905 12.809 11.9757 13.025 11.975ZM2 18C1.45 18 0.979002 17.804 0.587002 17.412C0.195002 17.02 -0.000664969 16.5493 1.69779e-06 16V2C1.69779e-06 1.45 0.196002 0.979002 0.588002 0.587002C0.980002 0.195002 1.45067 -0.000664969 2 1.69779e-06H16C16.55 1.69779e-06 17.021 0.196002 17.413 0.588002C17.805 0.980002 18.0007 1.45067 18 2V16C18 16.55 17.804 17.021 17.412 17.413C17.02 17.805 16.5493 18.0007 16 18H2Z" fill="white"/>
</svg>
