<svg width="159" height="35" viewBox="0 0 159 35" fill="none" xmlns="http://www.w3.org/2000/svg">
<path d="M9.56 6.28C13.2133 6.28 16.0533 7.04 18.08 8.56C20.1067 10.08 21.12 12.3333 21.12 15.32C21.12 18.44 20.12 20.8 18.12 22.4C16.1467 23.9733 13.4933 24.76 10.16 24.76H7.16V34H0.6V6.28H9.56ZM9.6 20.04C11.1467 20.04 12.32 19.68 13.12 18.96C13.9467 18.2133 14.36 17 14.36 15.32C14.36 12.4133 12.7333 10.96 9.48 10.96H7.16V20.04H9.6ZM32.4534 12.08C35.7068 12.08 38.2534 13.08 40.0934 15.08C41.9334 17.0533 42.8534 19.8267 42.8534 23.4C42.8534 25.6667 42.4268 27.6533 41.5734 29.36C40.7468 31.04 39.5468 32.3467 37.9734 33.28C36.4268 34.2133 34.5868 34.68 32.4534 34.68C29.2268 34.68 26.6801 33.6933 24.8134 31.72C22.9734 29.72 22.0534 26.9333 22.0534 23.36C22.0534 21.0933 22.4668 19.12 23.2934 17.44C24.1468 15.7333 25.3468 14.4133 26.8934 13.48C28.4668 12.5467 30.3201 12.08 32.4534 12.08ZM32.4534 16.72C31.1734 16.72 30.2134 17.2667 29.5734 18.36C28.9334 19.4267 28.6134 21.0933 28.6134 23.36C28.6134 25.68 28.9201 27.3733 29.5334 28.44C30.1734 29.5067 31.1468 30.04 32.4534 30.04C33.7334 30.04 34.6934 29.5067 35.3334 28.44C35.9734 27.3467 36.2934 25.6667 36.2934 23.4C36.2934 21.08 35.9734 19.3867 35.3334 18.32C34.7201 17.2533 33.7601 16.72 32.4534 16.72ZM58.1328 12.16C58.9061 12.16 59.6128 12.2533 60.2528 12.44L59.2528 18.56C58.4528 18.3733 57.8128 18.28 57.3328 18.28C56.0795 18.28 55.1195 18.72 54.4528 19.6C53.8128 20.4533 53.3061 21.7467 52.9328 23.48V34H46.6128V12.76H52.1328L52.6528 16.88C53.1328 15.4133 53.8528 14.2667 54.8128 13.44C55.7995 12.5867 56.9061 12.16 58.1328 12.16ZM75.9875 33C75.2142 33.5333 74.3075 33.9467 73.2675 34.24C72.2542 34.5333 71.2408 34.68 70.2275 34.68C65.5875 34.6533 63.2675 32.0933 63.2675 27V17.16H60.2675V12.76H63.2675V8.16L69.5875 7.44V12.76H74.4675L73.7875 17.16H69.5875V26.92C69.5875 27.9067 69.7475 28.6133 70.0675 29.04C70.3875 29.4667 70.8942 29.68 71.5875 29.68C72.3075 29.68 73.0675 29.4533 73.8675 29L75.9875 33ZM87.8172 8.32C86.9105 8.32 86.2572 8.53333 85.8572 8.96C85.4572 9.38667 85.2572 10.1067 85.2572 11.12V12.76H90.2572L89.5772 17.16H85.2572V34H78.9372V17.16H75.7372V12.76H78.9372V10.88C78.9372 8.74667 79.6305 7.01333 81.0172 5.68C82.4305 4.32 84.4439 3.64 87.0572 3.64C89.1639 3.64 91.0972 4.09333 92.8572 5L91.1372 9.12C90.0705 8.58667 88.9639 8.32 87.8172 8.32ZM101.164 12.08C104.418 12.08 106.964 13.08 108.804 15.08C110.644 17.0533 111.564 19.8267 111.564 23.4C111.564 25.6667 111.138 27.6533 110.284 29.36C109.458 31.04 108.258 32.3467 106.684 33.28C105.138 34.2133 103.298 34.68 101.164 34.68C97.9377 34.68 95.391 33.6933 93.5244 31.72C91.6844 29.72 90.7644 26.9333 90.7644 23.36C90.7644 21.0933 91.1777 19.12 92.0044 17.44C92.8577 15.7333 94.0577 14.4133 95.6044 13.48C97.1777 12.5467 99.031 12.08 101.164 12.08ZM101.164 16.72C99.8844 16.72 98.9244 17.2667 98.2844 18.36C97.6444 19.4267 97.3244 21.0933 97.3244 23.36C97.3244 25.68 97.631 27.3733 98.2444 28.44C98.8844 29.5067 99.8577 30.04 101.164 30.04C102.444 30.04 103.404 29.5067 104.044 28.44C104.684 27.3467 105.004 25.6667 105.004 23.4C105.004 21.08 104.684 19.3867 104.044 18.32C103.431 17.2533 102.471 16.72 101.164 16.72ZM104.044 0.599998L106.524 5.32L97.0844 9.12L95.3244 5.88L104.044 0.599998ZM120.964 34.68C119.124 34.68 117.684 34.16 116.644 33.12C115.63 32.0533 115.124 30.5467 115.124 28.6V4.32L121.444 3.64V28.36C121.444 29.24 121.804 29.68 122.524 29.68C122.897 29.68 123.244 29.6133 123.564 29.48L124.804 33.96C123.657 34.44 122.377 34.68 120.964 34.68ZM133.519 12.76V34H127.199V12.76H133.519ZM130.319 1.56C131.412 1.56 132.305 1.90667 132.999 2.6C133.719 3.26666 134.079 4.12 134.079 5.16C134.079 6.2 133.719 7.06667 132.999 7.76C132.305 8.42667 131.412 8.76 130.319 8.76C129.225 8.76 128.332 8.42667 127.639 7.76C126.945 7.06667 126.599 6.2 126.599 5.16C126.599 4.12 126.945 3.26666 127.639 2.6C128.332 1.90667 129.225 1.56 130.319 1.56ZM147.688 12.08C150.941 12.08 153.488 13.08 155.328 15.08C157.168 17.0533 158.088 19.8267 158.088 23.4C158.088 25.6667 157.661 27.6533 156.808 29.36C155.981 31.04 154.781 32.3467 153.208 33.28C151.661 34.2133 149.821 34.68 147.688 34.68C144.461 34.68 141.914 33.6933 140.048 31.72C138.208 29.72 137.288 26.9333 137.288 23.36C137.288 21.0933 137.701 19.12 138.528 17.44C139.381 15.7333 140.581 14.4133 142.128 13.48C143.701 12.5467 145.554 12.08 147.688 12.08ZM147.688 16.72C146.408 16.72 145.448 17.2667 144.808 18.36C144.168 19.4267 143.848 21.0933 143.848 23.36C143.848 25.68 144.154 27.3733 144.768 28.44C145.408 29.5067 146.381 30.04 147.688 30.04C148.968 30.04 149.928 29.5067 150.568 28.44C151.208 27.3467 151.528 25.6667 151.528 23.4C151.528 21.08 151.208 19.3867 150.568 18.32C149.954 17.2533 148.994 16.72 147.688 16.72Z" fill="white"/>
</svg>
